<?xml version="1.0" encoding="UTF-8"?>
<svg version="1.1" xmlns="http://www.w3.org/2000/svg" width="512" height="512">
<path d="M0 0 C2.97770731 1.38177928 5.44561902 2.9973172 8.02734375 5.01953125 C51.79522399 38.84940586 103.43746106 61.40396123 158.30078125 69.17578125 C159.53074829 69.35387329 160.76071533 69.53196533 162.0279541 69.7154541 C165.0180629 70.14780276 168.00870893 70.57592265 171 71 C171.09361563 98.1042334 171.16406352 125.20844242 171.20724869 152.31280518 C171.22783702 164.89902159 171.25588617 177.4851373 171.30175781 190.07128906 C171.34173989 201.04674793 171.36745989 212.02213382 171.37635398 222.9976635 C171.38154949 228.80425937 171.39368271 234.61064657 171.42292023 240.41717529 C171.45026919 245.89351848 171.45840593 251.36956897 171.45243073 256.84597397 C171.4535223 258.84529084 171.46135914 260.84461851 171.4768219 262.84387589 C171.58903893 278.11472992 169.96685436 291.92037786 163.375 305.9375 C163.03436523 306.6785498 162.69373047 307.41959961 162.34277344 308.18310547 C155.5474906 322.62078787 146.90381722 335.5298896 137 348 C136.58234375 348.5347998 136.1646875 349.06959961 135.734375 349.62060547 C129.53271136 357.51614883 122.5670025 364.63084708 115.5 371.75 C114.63383057 372.62551514 113.76766113 373.50103027 112.87524414 374.40307617 C106.89262555 380.35641512 100.62401895 385.77373322 94 391 C93.3306543 391.53399414 92.66130859 392.06798828 91.97167969 392.61816406 C67.68675183 411.8125722 40.14860597 426.67339055 11 437 C10.05938721 437.34458252 9.11877441 437.68916504 8.1496582 438.04418945 C1.29790371 440.28260885 -2.96027605 439.92438531 -9.5625 437.1875 C-10.42254639 436.85709717 -11.28259277 436.52669434 -12.16870117 436.1862793 C-14.79583256 435.16103964 -17.39850891 434.08846067 -20 433 C-20.75732422 432.69094727 -21.51464844 432.38189453 -22.29492188 432.06347656 C-42.31402395 423.83975087 -61.39153831 413.57747263 -79 401 C-79.56750977 400.5968457 -80.13501953 400.19369141 -80.71972656 399.77832031 C-98.91707097 386.75483954 -116.73335232 371.31268283 -130.72265625 353.83203125 C-132.18298962 352.01600776 -133.66814094 350.2195062 -135.18359375 348.44921875 C-158.09766028 321.53233846 -170.54912746 291.70332891 -170.34057617 256.38696289 C-170.33972814 254.35521965 -170.34020848 252.3234755 -170.34190369 250.29173279 C-170.34275818 244.82163883 -170.32522159 239.35174555 -170.30418181 233.88169789 C-170.28532321 228.14822889 -170.28365738 222.41475439 -170.28010559 216.68125916 C-170.27081196 205.84442874 -170.24623474 195.00769 -170.21605712 184.17089981 C-170.18242927 171.82497149 -170.16600608 159.47903861 -170.15097082 147.13307583 C-170.11968261 121.75533322 -170.06697468 96.37767177 -170 71 C-169.24918655 70.89257477 -168.49837311 70.78514954 -167.72480774 70.67446899 C-164.24955403 70.1749341 -160.77517765 69.66952442 -157.30078125 69.1640625 C-156.12036255 68.99527588 -154.93994385 68.82648926 -153.72375488 68.65258789 C-98.80577721 60.62589733 -47.42290485 37.36016645 -4 3 C-2.6703864 1.99505948 -1.3386436 0.9928802 0 0 Z " fill="#3682BA" transform="translate(255,40)"/>
<path d="M0 0 C4.97463748 1.78115411 8.50909933 6.10550359 12.16015625 9.7734375 C26.74255463 23.8099707 43.60989122 34.83459077 61.16015625 44.7734375 C61.86817383 45.17900879 62.57619141 45.58458008 63.30566406 46.00244141 C98.05255425 65.75966553 138.11275201 77.58592402 177.9609375 80.2578125 C179.66576294 80.37443237 179.66576294 80.37443237 181.4050293 80.4934082 C183.61500615 80.63563207 185.8262291 80.75992457 188.03833008 80.86401367 C189.04017334 80.92564697 190.0420166 80.98728027 191.07421875 81.05078125 C191.96061035 81.09452881 192.84700195 81.13827637 193.76025391 81.18334961 C197.09759002 82.00393368 198.10663709 82.99336558 200.16015625 85.7734375 C200.76333443 88.88539758 200.69952107 91.96250516 200.66809082 95.1240387 C200.67745076 96.56075948 200.67745076 96.56075948 200.6869998 98.02650493 C200.70298999 101.24521322 200.69030108 104.46317048 200.67773438 107.68188477 C200.68315334 109.98659712 200.69027472 112.291306 200.69897461 114.5960083 C200.71725288 120.86759424 200.71011768 127.13891771 200.69745827 133.41050839 C200.68733575 139.98265879 200.69672357 146.5547866 200.70300293 153.12693787 C200.71155739 164.88955707 200.69830009 176.65206612 200.67796558 188.41466623 C200.66015671 199.04400037 200.66314535 209.67315939 200.68164062 220.30249023 C200.70314051 232.6642318 200.71141702 245.0258694 200.69919157 257.38762707 C200.69298391 263.92359196 200.69204385 270.45943677 200.70533752 276.99539375 C200.71699262 283.15719045 200.70869552 289.31866107 200.6857605 295.48042297 C200.68052111 297.72840779 200.68190407 299.97642057 200.69081116 302.22439384 C200.75322049 319.59306347 199.07860321 336.02893018 192.53515625 352.2734375 C192.02637939 353.56725342 192.02637939 353.56725342 191.50732422 354.88720703 C180.5396353 382.01676349 162.75056994 407.98180423 141.6328125 428.30078125 C139.92349713 429.95958492 139.92349713 429.95958492 137.72265625 432.7734375 C135.14430967 435.7919896 132.44591311 438.24954762 129.4296875 440.8125 C126.96282815 442.94393442 124.60063824 445.16840279 122.22265625 447.3984375 C104.27431554 463.69720506 83.59752624 477.51113067 62.16015625 488.7734375 C61.20496094 489.27883057 61.20496094 489.27883057 60.23046875 489.79443359 C45.51918935 497.52302491 30.29993258 503.84883865 14.59765625 509.2734375 C13.61087891 509.6240625 12.62410156 509.9746875 11.60742188 510.3359375 C-0.4768454 514.38853829 -9.07955532 512.59769117 -20.96484375 508.4609375 C-21.61880127 508.23790955 -22.27275879 508.01488159 -22.9465332 507.78509521 C-51.21337736 498.1224845 -77.65749281 484.27984246 -101.83984375 466.7734375 C-102.56461914 466.25217285 -103.28939453 465.7309082 -104.03613281 465.19384766 C-111.90706045 459.50730751 -119.39302929 453.63147059 -126.48046875 446.984375 C-128.47281223 445.11737763 -130.50213121 443.34354164 -132.58984375 441.5859375 C-142.94864426 432.55135479 -152.39290075 422.60241843 -160.83984375 411.7734375 C-161.443125 411.06058594 -162.04640625 410.34773438 -162.66796875 409.61328125 C-185.94251232 381.88919259 -204.99478146 345.94037734 -204.98701477 309.03742981 C-204.99069146 308.08673809 -204.99436815 307.13604638 -204.99815625 306.15654582 C-205.0091255 302.98692665 -205.01302524 299.81734033 -205.0168457 296.64770508 C-205.02311502 294.36895139 -205.02976223 292.09019872 -205.03675842 289.81144714 C-205.05772986 282.3469615 -205.0681482 274.88247579 -205.078125 267.41796875 C-205.08217389 264.84627459 -205.08629085 262.27458053 -205.09047508 259.70288658 C-205.10732725 249.0113655 -205.12196633 238.31984776 -205.12922382 227.62831593 C-205.13113351 224.86003938 -205.13305389 222.09176284 -205.13500977 219.32348633 C-205.13549351 218.63549927 -205.13597725 217.9475122 -205.13647565 217.23867705 C-205.14478972 206.07482118 -205.17015809 194.91107197 -205.20259044 183.74726275 C-205.23564334 172.27622038 -205.25333754 160.80525775 -205.25686806 149.33416289 C-205.25922214 142.89704375 -205.26823071 136.46009385 -205.29332924 130.02301979 C-205.31653507 123.9745182 -205.32087337 117.92629825 -205.31056786 111.87776375 C-205.31007071 109.65613114 -205.31644348 107.43448498 -205.3301239 105.21289444 C-205.34773315 102.18441981 -205.34079078 99.15696835 -205.32759094 96.12849426 C-205.33856019 95.24581542 -205.34952943 94.36313658 -205.36083108 93.4537099 C-205.31812073 89.40625736 -205.14183434 87.27513089 -203.01176739 83.73647594 C-199.97376544 80.99065445 -197.79939034 81.02029137 -193.7421875 80.8046875 C-193.04431122 80.75902649 -192.34643494 80.71336548 -191.62741089 80.6663208 C-190.12682287 80.56873403 -188.62558993 80.48068501 -187.12393188 80.40124512 C-183.14199857 80.18436794 -179.16718872 79.87819553 -175.19140625 79.5703125 C-174.3925148 79.50918274 -173.59362335 79.44805298 -172.77052307 79.3850708 C-114.82417329 74.73060269 -59.30248754 47.36111373 -15.98828125 9.52734375 C-15.47773193 9.08285889 -14.96718262 8.63837402 -14.44116211 8.18041992 C-13.29309036 7.17167812 -12.15430091 6.15233403 -11.02172852 5.1262207 C-10.41385498 4.58441162 -9.80598145 4.04260254 -9.1796875 3.484375 C-8.63175537 2.98856934 -8.08382324 2.49276367 -7.51928711 1.98193359 C-5.15026843 0.27723197 -2.89972048 -0.23465946 0 0 Z M-2.83984375 20.7734375 C-3.80857422 21.72089844 -3.80857422 21.72089844 -4.796875 22.6875 C-51.41033338 66.94159045 -117.49421592 92.78087208 -181.08032227 97.29370117 C-182.34497818 97.3835881 -183.60963409 97.47347504 -184.91261292 97.56608582 C-185.87859909 97.63451187 -186.84458527 97.70293793 -187.83984375 97.7734375 C-187.91004397 126.18152522 -187.96288582 154.58959986 -187.99528027 182.99775696 C-188.01072392 196.18928941 -188.0317655 209.38076785 -188.06616211 222.57226562 C-188.09614116 234.07510128 -188.11543692 245.5778978 -188.12210923 257.08077145 C-188.12600709 263.16678147 -188.13511524 269.25267955 -188.15703392 275.33865356 C-188.17753358 281.07760937 -188.18365049 286.81640809 -188.17916679 292.55539703 C-188.179986 294.65145982 -188.18587071 296.74752836 -188.19746017 298.84355927 C-188.27597963 313.78883034 -187.45743411 328.11229881 -182.15234375 342.2734375 C-181.89888184 342.96864502 -181.64541992 343.66385254 -181.38427734 344.38012695 C-178.46239348 352.1440649 -174.76015819 359.47425724 -170.83984375 366.7734375 C-170.52821289 367.36721191 -170.21658203 367.96098633 -169.89550781 368.57275391 C-158.01414668 391.12219432 -139.3564105 413.91699257 -119.71484375 430.203125 C-118.38845421 431.31397624 -117.09956938 432.47033642 -115.83984375 433.65625 C-86.80528885 460.97695965 -43.44844146 488.12967303 -3.83984375 495.7734375 C1.85512365 495.43610494 6.95567016 493.6782949 12.28515625 491.7734375 C13.15261475 491.46510986 14.02007324 491.15678223 14.91381836 490.83911133 C50.73718625 477.87939603 82.50883065 458.80524724 111.16015625 433.7734375 C111.98515625 433.06058594 112.81015625 432.34773438 113.66015625 431.61328125 C125.07771838 421.56657773 135.85283085 410.81207147 145.16015625 398.7734375 C146.30291016 397.37351562 146.30291016 397.37351562 147.46875 395.9453125 C166.11851429 372.67040667 183.3848941 343.18432052 183.28041077 312.54800415 C183.28126519 311.62816187 183.28211962 310.70831959 183.28299993 309.76060331 C183.28464481 306.68364401 183.27914959 303.60673942 183.27368164 300.52978516 C183.27339953 298.32203167 183.27355797 296.11427809 183.27412415 293.90652466 C183.27441118 287.91532728 183.26852951 281.9241499 183.26155019 275.93295717 C183.25530113 269.6709125 183.25471162 263.40886738 183.25352478 257.14682007 C183.25076931 246.63710202 183.24452206 236.12739016 183.2355957 225.61767578 C183.22641236 214.79410845 183.21933603 203.9705431 183.21508789 193.14697266 C183.21482517 192.47946199 183.21456244 191.81195132 183.21429176 191.12421305 C183.21298669 187.77540491 183.21172299 184.42659676 183.21047986 181.07778859 C183.20002584 153.30966645 183.18243524 125.54155249 183.16015625 97.7734375 C182.34941147 97.69466873 181.53866669 97.61589996 180.70335388 97.53474426 C177.62871324 97.23350939 174.5545808 96.92759018 171.48069763 96.61872864 C169.52275535 96.42335761 167.56429993 96.23315073 165.60583496 96.04309082 C153.25860207 94.79639136 141.23632344 92.60227157 129.16015625 89.7734375 C127.77570313 89.45101074 127.77570313 89.45101074 126.36328125 89.12207031 C82.4198983 78.6227406 39.89736171 56.96820156 5.95703125 27.11328125 C3.12354678 24.74281031 0.26624624 22.76298922 -2.83984375 20.7734375 Z " fill="#3483BB" transform="translate(257.83984375,-0.7734375)"/>
</svg>
